<svg width="55" height="52" viewBox="0 0 55 52" fill="none" xmlns="http://www.w3.org/2000/svg">
<path d="M53.8529 8.82387C52.8637 7.61855 51.3627 6.94766 49.8049 6.94766H15.999C15.0324 6.94766 14.1114 7.22057 13.3154 7.70952L11.587 1.67153C11.3027 0.682258 10.4044 0 9.38105 0H6.75436H1.73976C0.784597 0 0 0.773226 0 1.73976V1.92169C0 2.87686 0.773226 3.66145 1.73976 3.66145H8.31218L11.6666 15.5214L16.2832 31.8842C13.6565 32.5437 11.7121 34.9203 11.7121 37.7403C11.7121 40.9355 14.2023 43.5622 17.3521 43.7669C17.0906 44.5174 16.9655 45.3474 17.0337 46.2003C17.2611 49.0885 19.6149 51.4195 22.5032 51.6128C25.9486 51.8516 28.8254 49.1112 28.8254 45.7227C28.8254 45.0404 28.7117 44.3923 28.4957 43.7782H35.4092C35.1249 44.5856 35.0112 45.4839 35.1136 46.4049C35.4319 49.2022 37.7403 51.4082 40.5603 51.6128C44.0057 51.8516 46.8939 49.1226 46.8939 45.7227C46.8939 42.4365 44.1649 39.8098 40.89 39.8098H17.7956C16.6698 39.8098 15.7147 38.9342 15.6692 37.8199C15.6237 36.6373 16.5675 35.6707 17.7387 35.6707H21.2069H40.0031H45.2906C47.633 35.6707 49.6798 34.0674 50.2483 31.7932L54.8422 13.304C55.2402 11.7121 54.8763 10.0861 53.8529 8.82387ZM40.9924 43.7669C42.0612 43.7669 42.9368 44.6424 42.9368 45.7113C42.9368 46.7802 42.0612 47.6557 40.9924 47.6557C39.9235 47.6557 39.0479 46.7802 39.0479 45.7113C39.0479 44.6424 39.9121 43.7669 40.9924 43.7669ZM22.9239 43.7669C23.9928 43.7669 24.8683 44.6424 24.8683 45.7113C24.8683 46.7802 23.9928 47.6557 22.9239 47.6557C21.855 47.6557 20.9794 46.7802 20.9794 45.7113C20.9794 44.6424 21.8436 43.7669 22.9239 43.7669ZM15.7829 15.4986L14.896 12.3716C14.7595 11.894 14.9528 11.5415 15.0893 11.371C15.2144 11.2004 15.51 10.9161 15.999 10.9161H19.7059L20.7179 15.51H15.7829V15.4986ZM16.8973 19.4557H21.5821L22.5145 23.7085H18.0912L16.8973 19.4557ZM21.2069 31.6909C20.6952 31.6909 20.2403 31.3498 20.1039 30.8494L19.2056 27.6656H23.3787L24.2657 31.6795H21.2069V31.6909ZM31.111 31.6909H28.3137L27.4268 27.6769H31.0996V31.6909H31.111ZM31.111 23.7085H26.5626L25.6302 19.4557H31.111V23.7085ZM31.111 15.4986H24.766L23.754 10.9048H31.111V15.4986ZM38.2065 31.6909H35.0794V27.6769H39.0479L38.2065 31.6909ZM39.8894 23.7085H35.0794V19.4557H40.7877L39.8894 23.7085ZM35.0794 15.4986V10.9048H42.5843L41.6178 15.4986H35.0794ZM46.4163 30.8267C46.2912 31.3384 45.8364 31.7023 45.302 31.7023H42.2545L43.1074 27.6883H47.2009L46.4163 30.8267ZM48.1788 23.7085H43.9374L44.8357 19.4557H49.2363L48.1788 23.7085ZM50.9988 12.3261L50.2142 15.4873H45.6658L46.6324 10.8934H49.8845C50.3734 10.8934 50.6577 11.1663 50.7828 11.3369C50.9192 11.5074 51.1239 11.8599 50.9988 12.3261Z" fill="#339900"/>
</svg>
