<svg width="451" height="80" viewBox="0 0 451 80" fill="none" xmlns="http://www.w3.org/2000/svg">
<path d="M68.0839 53.9535C67.7854 52.1964 67.5864 50.7494 67.487 49.6124C67.3875 48.4755 67.3377 47.3127 67.3377 46.124C67.3377 44.8837 67.5367 44.1861 67.9347 44.031C67.9844 44.031 68.0591 44.031 68.1585 44.031C69.651 44.031 72.412 42.9716 76.4417 40.8527C80.4713 38.7339 85.0482 35.8915 90.1723 32.3256C95.3461 28.708 100.719 24.1085 106.291 18.5271C111.912 12.8941 116.539 7.2093 120.171 1.47287C120.817 0.490956 121.365 0 121.812 0C121.962 0 122.111 0.0775199 122.26 0.23256C122.459 0.387597 122.559 0.645994 122.559 1.00775C122.559 1.36951 122.384 1.86046 122.036 2.48062C116.365 12.2481 108.38 21.447 98.0823 30.0775C87.7843 38.6563 79.1778 43.8501 72.2628 45.6589C72.1633 45.814 72.1136 46.1499 72.1136 46.6667C72.1136 47.1318 72.1633 47.9328 72.2628 49.0698C72.3623 50.2067 72.8349 52.4031 73.6806 55.6589C74.5761 58.8631 75.5959 61.8346 76.7402 64.5736C80.1231 72.6357 84.5756 76.6667 90.0976 76.6667C93.2815 76.6667 96.3162 75.969 99.2016 74.5736C102.137 73.1783 104.251 71.1628 105.545 68.5271C105.843 67.8036 106.216 67.4419 106.664 67.4419C107.112 67.4419 107.062 68.0103 106.515 69.1473C105.171 71.9897 102.808 74.4961 99.4255 76.6667C96.0923 78.8889 92.6597 80 89.1275 80C85.5954 80 82.2622 78.6563 79.1281 75.969C73.6558 71.3178 69.9744 63.9793 68.0839 53.9535ZM78.0834 9.92248C78.6306 8.94057 79.4515 7.75194 80.5459 6.35659C81.6901 4.90956 82.6602 4.08269 83.4562 3.87597C84.3019 3.61757 85.0979 3.48837 85.8441 3.48837C86.6401 3.48837 87.2371 3.82429 87.6351 4.49613C88.0331 5.16796 88.2321 5.8398 88.2321 6.51163C88.2321 7.18346 87.7595 7.95866 86.8142 8.83721C85.2223 10.3359 82.71 11.2662 79.2773 11.6279C76.4417 16.9509 73.1832 25.5039 69.5018 37.2868C68.1586 41.5762 66.3427 46.1499 64.0543 51.0078C61.8156 55.814 59.4028 60.0258 56.8159 63.6434C54.229 67.261 50.7963 70.4393 46.518 73.1783C42.2893 75.969 37.4886 77.7778 32.1158 78.6047C30.3746 78.8631 28.4344 78.9923 26.2952 78.9923C24.2058 78.9923 21.9173 78.708 19.4299 78.1395C10.326 75.969 4.45563 71.3178 1.81896 64.1861C1.02299 62.0155 0.625 59.8708 0.625 57.7519C0.625 55.5814 0.898617 53.3592 1.44585 51.0853C2.04283 48.8114 3.28654 46.7959 5.17699 45.0388C7.11718 43.23 8.70913 42.2481 9.95284 42.093C10.5996 41.9897 10.9229 42.1447 10.9229 42.5581C10.9229 42.8165 10.7737 43.0233 10.4752 43.1783C9.28123 43.7468 7.83853 45.0904 6.14708 47.2093C3.95815 50 2.86368 53.4625 2.86368 57.5969C2.86368 61.8346 4.10739 65.2713 6.59482 67.907C9.62947 71.2145 13.2114 73.2817 17.3405 74.1085C20.1762 74.677 22.5143 74.9612 24.355 74.9612C26.1957 74.9612 27.8125 74.7545 29.2055 74.3411C33.2849 73.3592 37.0906 71.8088 40.6228 69.6899C44.2047 67.6227 47.1896 65.4264 49.5775 63.1008C52.0152 60.7235 54.3285 57.907 56.5174 54.6512C58.7561 51.3437 60.4973 48.4496 61.741 45.969C63.0345 43.4884 65.298 38.4496 68.5317 30.8527C71.7653 23.2558 74.601 16.8992 77.0387 11.7829C76.2924 11.8863 74.1532 12.093 70.6211 12.4031C64.104 12.9716 59.0297 13.7985 55.3981 14.8837C48.5825 16.8475 43.7321 20.6202 40.8466 26.2016C39.4537 28.8889 38.7572 31.4987 38.7572 34.031C38.7572 35.3747 38.9562 36.6925 39.3542 37.9845C40.4487 41.447 42.6127 43.1783 45.8464 43.1783C49.9257 43.1783 52.7863 40.9819 54.428 36.5891C55.2239 34.4703 55.6219 32.7132 55.6219 31.3178C55.6219 29.9225 55.5722 28.9406 55.4727 28.3721C55.3732 27.8036 55.4478 27.5194 55.6966 27.5194C56.0945 27.6227 56.4428 27.9587 56.7413 28.5271C57.189 29.6124 57.4129 30.9044 57.4129 32.4031C57.4129 33.8501 56.9403 35.5297 55.9951 37.4419C54.5026 40.6977 52.4132 42.8424 49.7267 43.876C48.085 44.4961 46.5428 44.8062 45.1001 44.8062C42.6127 44.8062 40.374 43.876 38.3841 42.0155C35.6977 39.5349 34.3545 36.3049 34.3545 32.3256C34.3545 26.6925 36.8916 21.9638 41.966 18.1395C46.6423 14.522 53.4081 12.2222 62.2634 11.2403C64.9498 10.9302 68.0093 10.6718 71.442 10.4651C74.9243 10.2067 77.1382 10.0258 78.0834 9.92248ZM85.9188 6.51163C85.9188 5.94315 85.6949 5.65892 85.2472 5.65892C84.6999 5.65892 84.1278 5.91731 83.5308 6.43411C82.9836 6.89923 82.0135 7.9845 80.6205 9.68992C82.0632 9.4832 83.1577 9.17313 83.9039 8.75969C85.2472 8.08786 85.9188 7.3385 85.9188 6.51163Z" fill="#DAA520"/>
<path d="M113.272 44.7287C112.377 45.6589 111.108 47.7778 109.466 51.0853C107.825 54.3411 106.83 56.7959 106.481 58.4496C106.183 60.0517 106.034 61.3695 106.034 62.4031C106.034 63.385 106.407 63.876 107.153 63.876C108.098 63.876 109.267 62.9716 110.66 61.1628C112.7 58.5271 114.715 55.0904 116.705 50.8527C116.904 50.3876 117.128 50.1292 117.376 50.0775C117.774 49.9225 117.973 50.0775 117.973 50.5426C117.973 50.801 117.899 51.1111 117.749 51.4729C113.173 61.0853 109.317 65.8915 106.183 65.8915C104.74 65.8915 103.571 65.168 102.676 63.7209C102.228 62.9457 102.004 61.9122 102.004 60.6202C102.004 59.3282 102.253 57.7519 102.75 55.8915C98.7704 62.5581 95.3377 65.8915 92.4523 65.8915C91.6563 65.8915 90.935 65.6331 90.2883 65.1163C88.7958 64.031 88.0496 62.1705 88.0496 59.5349C88.0496 54.4703 90.1639 49.3282 94.3925 44.1085C96.7804 41.2145 99.7156 39.3282 103.198 38.4496C104.143 38.1912 105.039 38.062 105.884 38.062C108.173 38.062 110.113 38.8889 111.705 40.5426C112.202 41.1111 112.352 41.6538 112.153 42.1705C111.954 42.6873 111.531 42.8941 110.884 42.7907C110.337 40.9302 109.143 40 107.302 40C105.163 40 102.526 41.7571 99.3922 45.2713C97.6013 47.3385 95.9347 49.7674 94.3925 52.5581C92.4523 55.9173 91.4822 58.6047 91.4822 60.6202C91.4822 62.6357 92.1041 63.6434 93.3478 63.6434C96.3327 63.6434 100.238 58.8889 105.064 49.3798C106.009 47.4677 106.805 46.1757 107.451 45.5039C108.098 44.7804 108.919 44.4186 109.914 44.4186C110.113 44.4186 110.611 44.4961 111.406 44.6512C112.252 44.8062 112.874 44.832 113.272 44.7287Z" fill="#DAA520"/>
<path d="M126.75 34.6512C126.75 36.9767 125.332 39.1731 122.496 41.2403C123.491 41.292 124.809 41.3178 126.451 41.3178C128.143 41.3178 130.257 41.1886 132.794 40.9302C132.894 41.0853 132.943 41.4987 132.943 42.1705C132.943 42.8424 132.645 43.8501 132.048 45.1938C131.451 46.4858 130.904 47.6227 130.406 48.6047C129.958 49.5349 129.511 50.4393 129.063 51.3178C128.665 52.1447 128.192 53.1783 127.645 54.4186C127.148 55.6589 126.725 56.7959 126.377 57.8295C125.133 61.7571 125.332 63.7209 126.973 63.7209C129.063 63.7209 132.147 59.4057 136.227 50.7752C136.575 50.1034 136.849 49.845 137.048 50C137.296 50.155 137.421 50.3618 137.421 50.6202C137.421 50.8269 137.097 51.6279 136.451 53.0233C135.804 54.3669 135.107 55.7623 134.361 57.2093C133.615 58.6563 132.446 60.3359 130.854 62.2481C128.963 64.6253 127.148 65.814 125.406 65.814C123.466 65.814 122.123 64.5995 121.377 62.1705C121.228 61.7054 121.153 61.0078 121.153 60.0775C121.153 59.1473 121.427 57.907 121.974 56.3566C122.571 54.8062 123.491 52.9199 124.735 50.6977C125.979 48.4755 126.675 47.1835 126.824 46.8217C126.973 46.4083 127.048 46.0207 127.048 45.6589C127.048 44.0569 125.058 43.2041 121.078 43.1008L120.183 45.5814C117.049 54.1085 114.039 59.8191 111.153 62.7132C110.656 63.1783 110.407 63.0233 110.407 62.2481C110.407 62.093 110.457 61.9122 110.556 61.7054C113.342 57.8811 115.755 53.3592 117.795 48.1395C119.835 42.9199 121.252 37.9587 122.048 33.2558C122.347 31.6538 123.043 30.8527 124.138 30.8527C125.232 30.8527 126.028 31.5762 126.526 33.0233C126.675 33.4884 126.75 34.031 126.75 34.6512Z" fill="#DAA520"/>
<path d="M149.641 38.6047C153.273 38.6047 155.089 40.9819 155.089 45.7364C155.089 47.907 154.542 50.2326 153.447 52.7132C152.054 56.0724 149.965 59.1214 147.179 61.8605C147.825 63.1525 148.995 63.7985 150.686 63.7985C152.029 63.7985 153.298 63.1008 154.492 61.7054C155.984 60.1034 157.054 58.708 157.701 57.5194C158.347 56.2791 158.82 55.3747 159.118 54.8062C159.417 54.2377 159.79 53.4367 160.238 52.4031C160.735 51.3178 161.034 50.6718 161.133 50.4651C161.233 50.2067 161.407 50.0775 161.656 50.0775C162.153 50.0258 162.402 50.2067 162.402 50.6202C162.402 50.7752 162.352 50.9561 162.253 51.1628L161.805 52.2481C161.506 52.9716 161.282 53.4884 161.133 53.7985C160.984 54.1085 160.71 54.677 160.312 55.5039C159.964 56.2791 159.641 56.8992 159.342 57.3643C159.094 57.8295 158.72 58.4496 158.223 59.2248C157.775 60 157.352 60.6202 156.954 61.0853C156.606 61.5504 156.158 62.0672 155.611 62.6357C155.064 63.2041 154.542 63.6434 154.044 63.9535C152.8 64.7287 151.631 65.1163 150.537 65.1163C148.497 65.1163 146.905 64.4445 145.761 63.1008C143.472 64.8579 141.358 65.7364 139.418 65.7364C135.786 65.7364 133.971 63.3592 133.971 58.6047C133.971 56.4341 134.518 54.1085 135.612 51.6279C137.105 48.0103 139.194 44.9354 141.881 42.4031C144.617 39.8708 147.204 38.6047 149.641 38.6047ZM150.462 41.0078C149.119 41.0078 147.527 41.938 145.686 43.7985C143.846 45.6589 142.204 48.1912 140.761 51.3954C139.02 55.1163 138.149 58.1654 138.149 60.5426C138.149 62.9199 139.02 64.1085 140.761 64.1085C142.005 64.1085 143.398 63.4109 144.94 62.0155C144.144 60.8269 143.746 59.5607 143.746 58.2171C143.846 55.9948 144.716 54.8837 146.358 54.8837C147.005 54.8837 147.527 55.1163 147.925 55.5814C148.373 56.0465 148.597 56.4858 148.597 56.8992C148.597 57.261 148.547 57.6486 148.447 58.062C149.293 56.77 150.263 54.9354 151.358 52.5581C152.601 49.9225 153.223 47.3385 153.223 44.8062C153.223 42.2739 152.303 41.0078 150.462 41.0078Z" fill="#DAA520"/>
<path d="M165.16 50.7752C165.11 50.9819 164.886 51.7054 164.488 52.9457C164.09 54.1344 163.742 55.2972 163.444 56.4341C163.195 57.5194 163.07 58.6305 163.07 59.7674C163.07 60.8527 163.319 61.8863 163.817 62.8682C164.314 63.7985 165.11 64.2636 166.205 64.2636C167.996 64.2636 169.737 63.0233 171.428 60.5426C173.12 58.0103 174.911 54.8062 176.801 50.9302C177.199 50.2067 177.572 49.9225 177.92 50.0775C178.169 50.2842 178.219 50.5685 178.07 50.9302C177.92 51.2403 177.597 51.9638 177.1 53.1008C176.652 54.1861 176.304 54.9612 176.055 55.4264C175.856 55.8398 175.458 56.615 174.861 57.7519C174.314 58.8372 173.816 59.6641 173.368 60.2326C172.97 60.7494 172.398 61.447 171.652 62.3256C170.956 63.1525 170.284 63.7726 169.637 64.1861C167.896 65.323 166.254 65.8915 164.712 65.8915C163.17 65.8915 161.976 65.5556 161.13 64.8837C160.285 64.1602 159.762 63.4109 159.563 62.6357C159.414 61.8088 159.339 61.0853 159.339 60.4651C159.339 59.845 159.364 59.0439 159.414 58.062C159.563 56.4083 159.862 54.8062 160.309 53.2558C160.807 51.7054 161.081 50.8269 161.13 50.6202C162.275 46.3307 163.891 41.6537 165.981 36.5891C168.12 31.5245 169.911 27.7261 171.354 25.1938C172.846 22.6098 174.015 20.8527 174.861 19.9225C176.552 18.062 178.219 17.1318 179.861 17.1318C181.005 17.1318 181.776 17.9845 182.174 19.6899C182.224 20 182.249 20.3876 182.249 20.8527C182.249 22.6098 181.652 24.832 180.458 27.5194C176.179 37.3902 171.08 45.1421 165.16 50.7752ZM165.757 48.2946C168.294 45.6072 170.806 42.2222 173.294 38.1395C175.781 34.0568 177.597 30.5943 178.741 27.7519C179.935 24.8579 180.532 22.8941 180.532 21.8605C180.532 20.8269 180.358 20.3101 180.01 20.3101C179.512 20.3101 178.567 21.3437 177.174 23.4109C175.781 25.4264 173.891 29.0956 171.503 34.4186C169.165 39.6899 167.249 44.3152 165.757 48.2946Z" fill="#DAA520"/>
<path d="M187.093 35.5814C186.396 36.2016 185.625 36.5116 184.779 36.5116C183.934 36.5116 183.262 36.2016 182.764 35.5814C182.267 34.9612 182.068 34.2119 182.167 33.3333C182.317 32.4548 182.74 31.7054 183.436 31.0853C184.133 30.4651 184.904 30.155 185.749 30.155C186.595 30.155 187.267 30.4651 187.764 31.0853C188.311 31.7054 188.51 32.4548 188.361 33.3333C188.212 34.2119 187.789 34.9612 187.093 35.5814ZM179.78 64.031C180.725 64.031 181.72 63.5401 182.764 62.5581C184.605 60.646 186.943 56.7442 189.779 50.8527C190.127 50.0775 190.475 49.845 190.824 50.155C190.923 50.2584 190.973 50.4393 190.973 50.6977C190.973 50.9044 190.774 51.4729 190.376 52.4031C189.978 53.2817 189.605 54.0827 189.257 54.8062C188.958 55.5297 188.336 56.7183 187.391 58.3721C186.496 59.9742 185.675 61.2145 184.929 62.093C182.889 64.522 180.949 65.7364 179.108 65.7364C177.317 65.7364 176.024 65.168 175.228 64.031C174.432 62.8941 174.034 61.6279 174.034 60.2326C174.034 58.8372 174.357 57.3127 175.004 55.6589L179.78 43.0233C179.879 42.7132 179.929 42.2997 179.929 41.783C179.929 41.2662 179.63 40.5943 179.033 39.7674L183.138 39.6899C184.282 39.6899 184.953 39.9225 185.152 40.3876C185.351 40.801 185.202 41.4729 184.705 42.4031L178.735 56.8992C177.889 58.8114 177.466 60.4393 177.466 61.783C177.466 63.2817 178.237 64.031 179.78 64.031Z" fill="#DAA520"/>
<path d="M212.377 40.3101C206.258 51.4729 203.198 58.7597 203.198 62.1705C203.198 63.5142 203.671 64.1861 204.616 64.1861C207.153 64.1861 210.561 59.7158 214.839 50.7752C215.138 50.0517 215.436 49.7674 215.735 49.9225C216.033 50.0775 216.183 50.2842 216.183 50.5426C216.183 50.801 216.083 51.1111 215.884 51.4729C213.247 57.0026 211.009 60.8269 209.168 62.9457C207.377 65.0129 205.561 66.0465 203.721 66.0465C201.93 66.0465 200.562 65.323 199.616 63.876C199.119 63.2041 198.87 62.2997 198.87 61.1628C198.87 59.9742 199.119 58.553 199.616 56.8992C200.114 55.2455 201.482 52.5581 203.721 48.8372C204.268 47.907 204.541 47.1835 204.541 46.6667C204.541 46.0982 204.119 45.814 203.273 45.814C202.427 45.814 200.81 46.9767 198.422 49.3023C194.84 52.7132 191.383 57.8295 188.05 64.6512C187.751 65.168 187.403 65.5039 187.005 65.6589C186.657 65.7623 185.936 65.8398 184.841 65.8915C183.747 65.9432 183.025 66.0723 182.677 66.2791C183.473 64.6253 185.04 61.2403 187.378 56.124C191.557 47.0801 194.293 41.9121 195.587 40.6202C196.184 40 197.005 39.6899 198.049 39.6899C198.248 39.6899 198.746 39.7674 199.542 39.9225C200.387 40.0775 201.009 40.1034 201.407 40C199.567 41.0336 196.557 45.8915 192.378 54.5736C194.716 51.5762 196.83 49.199 198.721 47.4419C200.661 45.6331 202.974 43.9793 205.661 42.4806C208.347 40.9302 210.312 40.155 211.556 40.155C211.854 40.155 212.128 40.2067 212.377 40.3101Z" fill="#DAA520"/>
<path d="M218.12 53.7985C217.423 55.5556 217.075 57.5194 217.075 59.6899C217.075 61.137 217.374 62.2997 217.971 63.1783C218.617 64.0052 219.513 64.4186 220.657 64.4186C225.184 64.4186 229.288 60 232.97 51.1628C233.318 50.3359 233.741 49.9742 234.238 50.0775C234.437 50.1292 234.537 50.2584 234.537 50.4651C234.537 50.6718 233.965 52.0413 232.821 54.5736C231.726 57.0543 230.607 59.0698 229.463 60.6202C226.925 64.2377 223.791 66.0465 220.06 66.0465C218.07 66.0465 216.379 65.3747 214.986 64.031C213.593 62.6873 212.896 60.8527 212.896 58.5271C212.896 56.2016 213.419 53.7468 214.463 51.1628C215.558 48.5271 217.025 46.0982 218.866 43.876C220.707 41.6021 222.821 39.9483 225.209 38.9147C226.353 38.3979 227.448 38.1395 228.492 38.1395C229.537 38.1395 230.507 38.4496 231.403 39.0698C232.248 39.7933 232.671 40.5943 232.671 41.4729C232.671 44.5736 230.88 47.5452 227.298 50.3876C226.204 51.2662 224.662 52.0672 222.672 52.7907C220.682 53.4625 219.165 53.7985 218.12 53.7985ZM230.656 41.3954C230.656 40.3618 230.259 39.845 229.463 39.845C228.07 39.845 225.955 41.6279 223.12 45.1938C221.428 47.3643 219.936 49.7933 218.642 52.4806C219.488 52.4806 220.707 52.1705 222.299 51.5504C223.94 50.9302 225.358 50.1034 226.552 49.0698C229.288 46.6408 230.656 44.0827 230.656 41.3954Z" fill="#DAA520"/>
<path d="M280.421 37.9845C280.421 34.4186 278.804 32.6357 275.571 32.6357C275.123 32.6357 274.576 32.6873 273.929 32.7907C273.282 32.8424 272.834 32.6615 272.586 32.2481C272.188 31.6796 272.834 31.292 274.526 31.0853C275.123 30.9819 275.72 30.9302 276.317 30.9302C279.202 30.9302 281.167 32.2222 282.212 34.8062C282.66 35.8915 282.884 37.2868 282.884 38.9923C282.884 40.646 282.187 42.739 280.794 45.2713C278.357 49.8708 274.526 53.3075 269.302 55.5814C267.561 56.3566 265.745 56.7442 263.855 56.7442C262.014 56.7442 260.099 56.2532 258.109 55.2713C254.428 53.4625 251.865 50.4393 250.423 46.2016C249.876 44.5478 249.602 42.4806 249.602 40C249.602 37.4677 250.274 34.2894 251.617 30.4651C254.701 22.9716 259.775 16.5891 266.84 11.3178C274.402 5.63308 281.466 2.7907 288.033 2.7907C293.604 2.7907 297.336 5.11628 299.226 9.76744C300.072 11.7829 300.495 14.2119 300.495 17.0543C300.495 17.9845 300.445 18.9406 300.345 19.9225C299.848 24.4186 298.554 29.5607 296.465 35.3488C296.117 36.3307 295.943 37.0026 295.943 37.3643C295.943 37.6744 296.017 37.8295 296.166 37.8295C296.415 37.8811 296.838 37.3385 297.435 36.2016C301.116 29.2248 305.171 22.9716 309.599 17.4419C311.041 15.6331 312.782 14.1602 314.822 13.0233C317.061 11.7829 319.051 11.1628 320.792 11.1628C322.583 11.1628 323.976 11.8346 324.971 13.1783C326.016 14.522 326.538 16.3049 326.538 18.5271C326.538 23.7468 324.573 32.4548 320.643 44.6512C319.847 47.0801 319.349 48.6305 319.15 49.3023C323.18 42.739 328.229 35.5297 334.299 27.6744C340.418 19.7674 345.84 15.0904 350.566 13.6434C351.412 13.385 352.158 13.2558 352.805 13.2558C354.696 13.2558 355.914 14.2377 356.462 16.2015C356.661 16.8734 356.76 17.6486 356.76 18.5271C356.76 21.1628 355.765 24.5478 353.775 28.6822C349.696 37.1576 346.91 43.9018 345.417 48.9147C343.378 55.5297 342.358 60.0517 342.358 62.4806C342.358 64.9096 342.582 66.9251 343.03 68.5271C343.925 71.7313 346.288 73.3333 350.119 73.3333C350.318 73.3333 350.716 73.3075 351.313 73.2558C351.959 73.2558 352.308 73.385 352.357 73.6434C352.457 73.9018 352.283 74.1344 351.835 74.3411C351.437 74.5478 351.014 74.6512 350.566 74.6512C350.168 74.6512 349.845 74.6253 349.596 74.5736C341.736 73.7468 337.806 69.5607 337.806 62.0155C337.806 59.2765 338.328 56.1757 339.373 52.7132C340.467 49.199 341.388 46.5116 342.134 44.6512C343.328 41.6537 345.84 35.7881 349.671 27.0543C351.014 23.7985 351.686 21.3178 351.686 19.6124C351.686 17.907 350.989 17.0543 349.596 17.0543C347.656 17.0543 344.646 19.1214 340.567 23.2558C338.478 25.4264 336.214 28.0879 333.776 31.2403C331.339 34.3411 327.732 39.8191 322.956 47.6744C318.18 55.478 315.146 60.9819 313.852 64.1861C312.708 66.9767 311.191 68.3721 309.3 68.3721C307.957 68.3721 307.161 67.8811 306.912 66.8992C306.763 66.4858 306.763 66.1499 306.912 65.8915C307.061 65.6848 307.534 64.832 308.33 63.3333C309.126 61.8346 309.947 60.2584 310.793 58.6047C311.638 56.9509 312.633 54.7028 313.777 51.8605C314.971 49.0181 316.066 46.124 317.061 43.1783C319.449 35.8915 321.066 28.3979 321.911 20.6977C322.011 19.8191 322.061 18.7339 322.061 17.4419C322.061 16.0982 321.712 15.0388 321.016 14.2636C320.369 13.4884 319.673 13.1008 318.926 13.1008C316.489 13.1008 313.802 15.0129 310.867 18.8372C306.887 23.9535 303.43 28.9923 300.495 33.9535C297.559 38.8631 295.296 42.9974 293.704 46.3566C292.162 49.7158 290.346 53.7726 288.257 58.5271C286.217 63.23 285.122 65.7364 284.973 66.0465C284.874 66.3566 284.699 66.7442 284.451 67.2093C284.252 67.6744 284.078 68.1137 283.928 68.5271C283.282 70.0258 281.889 70.7752 279.749 70.7752C278.506 70.7752 277.834 70.3618 277.735 69.5349C277.735 69.3798 277.76 69.199 277.809 68.9923C281.093 63.7209 284.724 55.7364 288.704 45.0388C293.779 31.4987 296.316 21.6279 296.316 15.4264C296.316 8.03618 293.381 4.34108 287.51 4.34108C283.729 4.34108 278.953 6.22739 273.183 10C267.462 13.7726 262.711 18.6047 258.93 24.4961C257.437 26.8217 256.318 29.0698 255.572 31.2403C254.278 35.2196 253.632 38.3721 253.632 40.6977C253.632 47.3643 255.771 51.7571 260.049 53.876C261.542 54.6512 263.059 55.0388 264.601 55.0388C269.974 55.0388 274.377 52.0155 277.809 45.969C279.551 42.9199 280.421 40.2584 280.421 37.9845Z" fill="#DAA520"/>
<path d="M365.275 38.6047C368.906 38.6047 370.722 40.9819 370.722 45.7364C370.722 47.907 370.175 50.2326 369.08 52.7132C367.688 56.0724 365.598 59.1214 362.812 61.8605C363.459 63.1525 364.628 63.7985 366.319 63.7985C367.663 63.7985 368.931 63.1008 370.125 61.7054C371.618 60.1034 372.687 58.708 373.334 57.5194C373.981 56.2791 374.453 55.3747 374.752 54.8062C375.05 54.2377 375.423 53.4367 375.871 52.4031C376.369 51.3178 376.667 50.6718 376.767 50.4651C376.866 50.2067 377.04 50.0775 377.289 50.0775C377.786 50.0258 378.035 50.2067 378.035 50.6202C378.035 50.7752 377.985 50.9561 377.886 51.1628L377.438 52.2481C377.14 52.9716 376.916 53.4884 376.767 53.7985C376.617 54.1085 376.344 54.677 375.946 55.5039C375.598 56.2791 375.274 56.8992 374.976 57.3643C374.727 57.8295 374.354 58.4496 373.856 59.2248C373.409 60 372.986 60.6202 372.588 61.0853C372.239 61.5504 371.792 62.0672 371.245 62.6357C370.697 63.2041 370.175 63.6434 369.677 63.9535C368.434 64.7287 367.265 65.1163 366.17 65.1163C364.13 65.1163 362.539 64.4445 361.394 63.1008C359.106 64.8579 356.992 65.7364 355.051 65.7364C351.42 65.7364 349.604 63.3592 349.604 58.6047C349.604 56.4341 350.151 54.1085 351.246 51.6279C352.738 48.0103 354.828 44.9354 357.514 42.4031C360.25 39.8708 362.837 38.6047 365.275 38.6047ZM366.096 41.0078C364.752 41.0078 363.16 41.938 361.32 43.7985C359.479 45.6589 357.837 48.1912 356.395 51.3954C354.653 55.1163 353.783 58.1654 353.783 60.5426C353.783 62.9199 354.653 64.1085 356.395 64.1085C357.638 64.1085 359.031 63.4109 360.573 62.0155C359.777 60.8269 359.379 59.5607 359.379 58.2171C359.479 55.9948 360.35 54.8837 361.991 54.8837C362.638 54.8837 363.16 55.1163 363.558 55.5814C364.006 56.0465 364.23 56.4858 364.23 56.8992C364.23 57.261 364.18 57.6486 364.081 58.062C364.926 56.77 365.897 54.9354 366.991 52.5581C368.235 49.9225 368.857 47.3385 368.857 44.8062C368.857 42.2739 367.936 41.0078 366.096 41.0078Z" fill="#DAA520"/>
<path d="M392.434 61.2403C392.434 62.8941 393.081 63.7209 394.375 63.7209C396.713 63.7209 399.822 59.6641 403.702 51.5504C403.852 51.2403 403.976 50.9302 404.076 50.6202C404.225 50.3101 404.424 50.1034 404.673 50C404.971 49.8966 405.17 49.9742 405.27 50.2326C405.369 50.4393 405.319 50.801 405.12 51.3178C401.14 60.9302 397.111 65.7364 393.031 65.7364C391.688 65.7364 390.619 65.1163 389.823 63.876C389.027 62.6357 388.629 61.4212 388.629 60.2326C388.629 58.9923 388.753 57.8553 389.002 56.8217C386.116 61.7829 383.629 64.5995 381.54 65.2713C380.943 65.5297 380.346 65.6589 379.749 65.6589C379.201 65.6589 378.654 65.5814 378.107 65.4264C375.669 64.7545 374.45 62.739 374.45 59.3799C374.45 57.1059 374.998 54.5995 376.092 51.8605C377.236 49.0698 378.828 46.4083 380.868 43.876C382.908 41.3437 385.37 39.6382 388.256 38.7597C389.3 38.3979 390.519 38.2171 391.912 38.2171C393.355 38.2171 394.947 38.6822 396.688 39.6124C400.071 32.9974 402.956 26.8734 405.344 21.2403C406.041 19.5349 406.712 18.4496 407.359 17.9845C408.055 17.4677 408.677 17.2093 409.225 17.2093C409.822 17.2093 410.17 17.2093 410.269 17.2093C410.419 17.2093 410.891 17.2868 411.687 17.4419C412.533 17.5452 413.18 17.5711 413.627 17.5194C412.483 18.6047 409.448 23.876 404.523 33.3333C398.255 45.4264 394.474 53.4884 393.181 57.5194C392.683 59.0181 392.434 60.2584 392.434 61.2403ZM396.091 40.8527C395.444 40.1809 394.524 39.845 393.33 39.845C392.186 39.845 390.569 40.7494 388.479 42.5581C385.146 45.4522 382.385 49.0181 380.196 53.2558C378.754 56.0465 378.032 58.3463 378.032 60.155C378.032 60.9819 378.182 61.7313 378.48 62.4031C378.828 63.0749 379.351 63.4109 380.047 63.4109C381.739 63.4109 383.828 61.6021 386.315 57.9845C388.803 54.3669 392.061 48.6563 396.091 40.8527Z" fill="#DAA520"/>
<path d="M426.775 44.7287C425.879 45.6589 424.611 47.7778 422.969 51.0853C421.327 54.3411 420.332 56.7959 419.984 58.4496C419.686 60.0517 419.536 61.3695 419.536 62.4031C419.536 63.385 419.91 63.876 420.656 63.876C421.601 63.876 422.77 62.9716 424.163 61.1628C426.203 58.5271 428.218 55.0904 430.208 50.8527C430.406 50.3876 430.63 50.1292 430.879 50.0775C431.277 49.9225 431.476 50.0775 431.476 50.5426C431.476 50.801 431.401 51.1111 431.252 51.4729C426.675 61.0853 422.82 65.8915 419.686 65.8915C418.243 65.8915 417.074 65.168 416.178 63.7209C415.731 62.9457 415.507 61.9122 415.507 60.6202C415.507 59.3282 415.756 57.7519 416.253 55.8915C412.273 62.5581 408.841 65.8915 405.955 65.8915C405.159 65.8915 404.438 65.6331 403.791 65.1163C402.299 64.031 401.552 62.1705 401.552 59.5349C401.552 54.4703 403.667 49.3282 407.895 44.1085C410.283 41.2145 413.218 39.3282 416.701 38.4496C417.646 38.1912 418.542 38.062 419.387 38.062C421.676 38.062 423.616 38.8889 425.208 40.5426C425.705 41.1111 425.855 41.6538 425.656 42.1705C425.457 42.6873 425.034 42.8941 424.387 42.7907C423.84 40.9302 422.646 40 420.805 40C418.666 40 416.029 41.7571 412.895 45.2713C411.104 47.3385 409.438 49.7674 407.895 52.5581C405.955 55.9173 404.985 58.6047 404.985 60.6202C404.985 62.6357 405.607 63.6434 406.851 63.6434C409.836 63.6434 413.741 58.8889 418.566 49.3798C419.512 47.4677 420.308 46.1757 420.954 45.5039C421.601 44.7804 422.422 44.4186 423.417 44.4186C423.616 44.4186 424.113 44.4961 424.909 44.6512C425.755 44.8062 426.377 44.832 426.775 44.7287Z" fill="#DAA520"/>
<path d="M436.596 64.2636C437.243 64.3669 437.69 64.4186 437.939 64.4186C439.929 64.4186 441.894 63.2041 443.834 60.7752C444.879 59.4315 446.745 56.0465 449.431 50.6202C449.531 50.3618 449.705 50.2326 449.953 50.2326C450.401 50.1809 450.625 50.3618 450.625 50.7752C450.625 50.8786 450.501 51.1886 450.252 51.7054C450.053 52.1705 449.854 52.6615 449.655 53.1783C449.456 53.6434 449.133 54.3411 448.685 55.2713C448.237 56.2016 447.839 56.9509 447.491 57.5194C447.192 58.0879 446.794 58.7855 446.297 59.6124C445.799 60.4393 445.302 61.0853 444.804 61.5504L443.237 63.2558C442.392 64.1344 441.397 64.7545 440.252 65.1163C438.412 65.7364 436.621 65.7881 434.88 65.2713C433.735 65.7881 432.716 66.0465 431.82 66.0465C428.288 66.0465 426.149 64.5995 425.403 61.7054C425.253 61.0336 425.179 60.2326 425.179 59.3023C425.179 58.3204 425.477 57.3902 426.074 56.5116C426.721 55.6331 427.392 55.168 428.089 55.1163C430.626 50.1034 432.79 45.5814 434.581 41.5504C436.571 37.1576 438.884 34.9612 441.521 34.9612C442.217 34.9612 442.889 35.1421 443.536 35.5039C444.232 35.814 444.481 36.1757 444.282 36.5891C444.133 37.0026 443.785 37.0801 443.237 36.8217C442.69 36.5633 442.217 36.4341 441.82 36.4341C441.422 36.4341 441.073 36.5116 440.775 36.6667C439.083 37.4935 438.238 39.2765 438.238 42.0155C438.238 43.4625 438.437 44.6512 438.835 45.5814C439.233 46.5116 439.68 47.5194 440.178 48.6047C441.322 51.292 441.894 53.4884 441.894 55.1938C441.894 56.8992 441.372 58.5788 440.327 60.2326C439.282 61.8863 438.039 63.23 436.596 64.2636ZM434.059 63.7209C436.248 61.9638 437.342 59.1214 437.342 55.1938C437.342 53.5917 437.168 51.3954 436.82 48.6047C436.472 45.814 436.297 43.9277 436.297 42.9457C436.297 41.9638 436.322 41.292 436.372 40.9302C432.591 48.7855 430.253 53.5659 429.358 55.2713C430.402 55.2713 430.925 56.0465 430.925 57.5969C430.925 60.646 431.969 62.6873 434.059 63.7209ZM428.462 61.6279C428.462 61.938 428.487 62.2739 428.537 62.6357C428.935 64.031 429.855 64.7287 431.298 64.7287C431.895 64.7287 432.392 64.6253 432.79 64.4186C430.949 63.23 429.954 61.292 429.805 58.6047C428.91 59.5349 428.462 60.5426 428.462 61.6279Z" fill="#DAA520"/>
</svg>
